<svg width="193" height="193" viewBox="0 0 193 193" fill="none" xmlns="http://www.w3.org/2000/svg">
<path d="M130.191 35.1292L113.61 50.2225C121.209 52.5472 128.349 56.4661 134.402 61.979C155.335 81.0444 155.335 111.956 134.402 131.021C118.961 145.085 95.0962 154.035 62.8092 157.871L79.3899 142.778C71.791 140.453 64.6507 136.534 58.5979 131.021C37.665 111.956 37.5411 81.1573 58.5979 61.979C74.0395 47.9148 97.9038 38.9649 130.191 35.1292ZM96.5 72.6667C81.6919 72.6667 69.6875 83.3372 69.6875 96.5C69.6875 109.663 81.6919 120.333 96.5 120.333C111.308 120.333 123.313 109.663 123.313 96.5C123.313 83.3372 111.308 72.6667 96.5 72.6667Z" fill="#1A664C"/>
<g clip-path="url(#clip0_14_2)">
<path d="M28.6671 98.7966L48.7748 91.3503C47.9396 98.6599 48.728 106.259 51.3826 113.625C60.5636 139.098 88.5931 152.132 113.988 142.736C132.721 135.804 150.079 119.701 166.061 94.4265L145.954 101.873C146.788 94.5634 146 86.964 143.346 79.5983C134.165 54.1247 106.286 41.0358 80.7405 50.4877C62.0073 57.4191 44.6495 73.5221 28.6671 98.7966ZM75.7528 86.5626C81.4878 74.229 95.8126 68.7296 107.748 74.2795C119.684 79.8295 124.71 94.3268 118.975 106.66C113.24 118.994 98.9159 124.494 86.98 118.944C75.0445 113.394 70.0178 98.8964 75.7528 86.5626Z" fill="#15BA81"/>
</g>
<defs>
<clipPath id="clip0_14_2">
<rect width="131.351" height="143" fill="white" transform="translate(16 43.6666) rotate(-14.4004)"/>
</clipPath>
</defs>
</svg>
